<?xml version="1.0" encoding="utf-8"?>
<!-- Generator: Adobe Illustrator 22.1.0, SVG Export Plug-In . SVG Version: 6.00 Build 0)  -->
<svg version="1.1" id="Layer_1" xmlns="http://www.w3.org/2000/svg" xmlns:xlink="http://www.w3.org/1999/xlink" x="0px" y="0px"
	 viewBox="0 0 200 150" style="enable-background:new 0 0 200 150;" xml:space="preserve">
<style type="text/css">
	.st0{fill:url(#SVGID_1_);}
	.st1{fill:#4DC8ED;}
</style>
<linearGradient id="SVGID_1_" gradientUnits="userSpaceOnUse" x1="207.5301" y1="12.7925" x2="-7.5301" y2="136.9575">
	<stop  offset="0" style="stop-color:#DFB4AB"/>
	<stop  offset="1" style="stop-color:#6D3494"/>
</linearGradient>
<rect y="-0.2" class="st0" width="200" height="150.2"/>
<g>
	<circle class="st1" cx="101.5" cy="73" r="8.9"/>
	<g>
		<path class="st1" d="M101.5,93.3c-12.5,0-23.4-1.5-31.5-4.3c-5.3-1.8-9.8-4.2-13-7c-3.4-2.9-5.2-6.1-5.2-9.1
			c0-5.9,6.4-11.6,17.3-15.4c8.9-3.1,20.4-4.8,32.5-4.8c11.9,0,23.2,1.7,32,4.7c5.2,1.8,9.5,4.1,12.6,6.6c3.3,2.8,5.1,5.9,5.1,8.9
			c0,6.1-7.2,12.3-18.8,16.1C124.2,91.8,113.2,93.3,101.5,93.3z M101.5,57c-11.5,0-22.8,1.7-31.1,4.5c-9.9,3.5-14.4,8.2-14.4,11.4
			c0,3.3,4.8,8.5,15.3,12.1c7.7,2.6,18.2,4,30.2,4c11.3,0,21.8-1.4,29.6-4C142,81.4,147,76.2,147,73c0-1.7-1.3-3.7-3.6-5.6
			c-2.7-2.2-6.6-4.3-11.2-5.9C123.8,58.6,112.9,57,101.5,57z"/>
	</g>
	<g>
		<path class="st1" d="M81.4,117.3c-1.8,0-3.4-0.4-4.7-1.2c-5.1-2.9-6.9-11.4-4.7-22.6c1.8-9.2,6-20.1,12.1-30.5
			c5.9-10.3,13-19.3,20.1-25.4c4.1-3.6,8.3-6.2,12-7.6c4.1-1.5,7.6-1.5,10.2,0c5.3,3,7,12.4,4.6,24.4c-1.8,8.5-5.9,18.7-11.8,28.9
			c-6.2,10.8-13,19.5-19.5,25.2c-4.2,3.7-8.5,6.4-12.5,7.8C85.1,116.9,83.1,117.3,81.4,117.3z M85.8,64l1.8,1.1
			C82,75,77.7,85.6,76.1,94.2c-2,10.4-0.1,16.6,2.7,18.2c0.7,0.4,1.6,0.6,2.6,0.6c3.5,0,9.1-2.2,15.5-7.8
			c6.1-5.4,12.6-13.7,18.6-24.1c5.6-9.8,9.6-19.6,11.3-27.6c2.3-11.3,0.3-18.2-2.5-19.8c-1.5-0.8-3.8-0.7-6.6,0.3
			c-3.3,1.2-7,3.6-10.7,6.8c-6.7,5.8-13.5,14.4-19.2,24.3L85.8,64z"/>
	</g>
	<g>
		<path class="st1" d="M121.7,117.3c-4.8,0-10.9-2.9-17.3-8.4c-7.1-6.1-14.4-15.2-20.4-25.7l0,0C78.1,73,73.8,62.3,72,53.1
			c-1-5.3-1.2-10.2-0.6-14.2c0.7-4.3,2.5-7.4,5.1-8.9c5.3-3.1,14.2,0.1,23.4,8.2c6.5,5.8,13.3,14.5,19.1,24.6
			c6.2,10.8,10.4,21,12.1,29.4c1.1,5.5,1.3,10.6,0.5,14.7c-0.8,4.4-2.7,7.5-5.3,9.1C125,116.9,123.5,117.3,121.7,117.3z M87.7,81.1
			c5.7,9.9,12.9,18.9,19.5,24.6c8,6.9,14.3,8.4,17.1,6.8c2.8-1.6,4.9-8.4,2.8-19.3c-1.6-8-5.6-17.7-11.6-28.1
			c-5.6-9.8-12.1-18.1-18.3-23.6c-8.6-7.6-15.6-9.4-18.4-7.7c-1.5,0.8-2.5,2.9-3,5.9c-0.6,3.4-0.4,7.8,0.5,12.7
			C77.9,61,82,71.2,87.7,81.1L87.7,81.1z"/>
	</g>
</g>
</svg>
