<svg xmlns="http://www.w3.org/2000/svg" viewBox="0 0 111.57 25.17"><defs><style>.cls-1{fill-rule:evenodd;}.cls-2{fill:#231f20;}</style></defs><title>Quickcharge Black</title><g id="Layer_2" data-name="Layer 2"><g id="Layer_1-2" data-name="Layer 1"><path class="cls-1" d="M13.69,16.12A8.84,8.84,0,0,0,16.12,3.9h0A8.84,8.84,0,0,0,3.9,1.48h0A8.83,8.83,0,0,0,1.48,13.69l1.06,1.6c1.33,2,3.76.35,2.44-1.63L3.91,12.07a5.88,5.88,0,1,1,8.16,1.61l-6.6,4.41A1.5,1.5,0,0,0,5,20.15H5a1.49,1.49,0,0,0,2.07.38Z"/><path class="cls-1" d="M7,22.48l4.65-3.12a1.51,1.51,0,0,1,2.08.37h0a1.49,1.49,0,0,1-.45,2.06L8.58,24.91a1.51,1.51,0,0,1-2.08-.38h0A1.48,1.48,0,0,1,7,22.48Z"/><path class="cls-2" d="M27.14,17h0a2.36,2.36,0,0,1-2,1.08c-2,0-3.17-2.37-3.17-5.23,0-3.56,1.55-5.68,3.56-5.68a2.07,2.07,0,0,1,1.94,1.28l0,0,.15-1.12h2.44c0,.95-.09,2.09-.09,3.34V22.05H27.14Zm0-5.79a2.11,2.11,0,0,0-.08-.62c-.15-.65-.54-1-1-1-.88,0-1.33,1.17-1.33,3.09s.47,3.13,1.33,3.13c.37,0,.76-.26,1-.93a2.14,2.14,0,0,0,.1-.69Z"/><path class="cls-2" d="M39.68,14.68c0,1.12,0,2.22.08,3.22H37.32l-.15-1.12h0a3,3,0,0,1-2.44,1.29c-2,0-2.83-1.49-2.83-4.34V7.34h2.85v6.09c0,1.38.26,2.27,1.06,2.27a1,1,0,0,0,.9-.72,2.05,2.05,0,0,0,.18-.9V7.34h2.83Z"/><path class="cls-2" d="M44.54,4.53a1.44,1.44,0,0,1-1.49,1.53,1.41,1.41,0,0,1-1.4-1.53,1.45,1.45,0,1,1,2.89,0ZM41.71,17.9V7.34h2.83V17.9Z"/><path class="cls-2" d="M52.38,17.73a5,5,0,0,1-1.79.3c-2.68,0-4.43-1.86-4.43-5.32,0-3.26,1.92-5.52,4.84-5.52a4.07,4.07,0,0,1,1.55.28l-.36,2.22a3.14,3.14,0,0,0-1.06-.19C49.77,9.5,49,10.79,49,12.63s.8,3.09,2.12,3.09a2.36,2.36,0,0,0,1.06-.22Z"/><path class="cls-2" d="M56.32,12h0a15.42,15.42,0,0,1,.54-1.47l1.36-3.15h3.05l-2.55,4.42,2.7,6.14H58.3l-1.51-4.34-.47.91V17.9H53.49V3h2.83Z"/><path class="cls-2" d="M68.05,17.73a5,5,0,0,1-1.79.3c-2.68,0-4.43-1.86-4.43-5.32,0-3.26,1.92-5.52,4.84-5.52a4.11,4.11,0,0,1,1.55.28l-.36,2.22A3.19,3.19,0,0,0,66.8,9.5c-1.36,0-2.16,1.29-2.16,3.13s.8,3.09,2.11,3.09a2.31,2.31,0,0,0,1.06-.22Z"/><path class="cls-2" d="M69.18,3H72V8.44h0A3.28,3.28,0,0,1,73,7.53a2.81,2.81,0,0,1,1.42-.37c2,0,2.7,1.65,2.7,4.32V17.9H74.25V11.48c0-1-.19-1.94-1-1.94-.48,0-.89.28-1.11,1a4.72,4.72,0,0,0-.1.8V17.9H69.18Z"/><path class="cls-2" d="M83.8,17.9l-.15-1h0a2.75,2.75,0,0,1-2.33,1.21,2.93,2.93,0,0,1-2.79-3.22c0-2.76,2.44-3.9,4.84-3.93v-.24a1.35,1.35,0,0,0-1.49-1.42,3.88,3.88,0,0,0-2.16.61L79.16,8a7,7,0,0,1,3.28-.8c3.22,0,3.74,2.25,3.74,4.39v3.93a14.22,14.22,0,0,0,.17,2.42Zm-.39-5.14c-1,0-2.24.32-2.24,1.79,0,1.06.58,1.45,1,1.45a1.22,1.22,0,0,0,1.17-.91,2,2,0,0,0,.06-.5Z"/><path class="cls-2" d="M88.17,10.51c0-1.06,0-2.2-.08-3.17h2.46l.15,1.53h.06a2.48,2.48,0,0,1,2.1-1.71,2,2,0,0,1,.6,0V10a2.17,2.17,0,0,0-.6,0,1.88,1.88,0,0,0-1.73,1.51A4.08,4.08,0,0,0,91,12.54V17.9H88.17Z"/><path class="cls-2" d="M102.26,7.34c-.05.95-.11,2.07-.11,3.34v6c0,2.27-.41,3.52-1.28,4.34a4.76,4.76,0,0,1-3.43,1.17,6.68,6.68,0,0,1-2.64-.5l.52-2.18a4.91,4.91,0,0,0,2,.45c1.43,0,2-.95,2-2.57v-.64h0a2.15,2.15,0,0,1-1.9,1c-2.38,0-3.31-2.59-3.31-5.12,0-3.52,1.6-5.55,3.57-5.55A2.12,2.12,0,0,1,99.6,8.4h0l.15-1.06Zm-2.92,3.84a2.67,2.67,0,0,0-.11-.78c-.13-.45-.43-.86-.9-.86-1,0-1.43,1.38-1.43,3.11,0,2,.56,3,1.36,3a1,1,0,0,0,.95-.76,2.51,2.51,0,0,0,.13-.84Z"/><path class="cls-2" d="M106.47,13.62a2,2,0,0,0,2.25,2.25,6.05,6.05,0,0,0,2-.35l.39,2a8.82,8.82,0,0,1-2.92.48c-2.87,0-4.45-1.9-4.45-5.21,0-3.54,1.84-5.66,4.23-5.66s3.59,1.8,3.59,5a7,7,0,0,1-.09,1.47Zm2.53-2c0-1.36-.35-2.41-1.19-2.41s-1.3,1.36-1.32,2.41Z"/></g></g></svg>