<?xml version="1.0" encoding="utf-8"?>
<!-- Generator: Adobe Illustrator 22.1.0, SVG Export Plug-In . SVG Version: 6.00 Build 0)  -->
<svg version="1.1" id="Layer_1" xmlns="http://www.w3.org/2000/svg" xmlns:xlink="http://www.w3.org/1999/xlink" x="0px" y="0px"
	 viewBox="0 0 76.2 76.2" style="enable-background:new 0 0 76.2 76.2;" xml:space="preserve">
<style type="text/css">
	.st0{fill:#383838;}
	.st1{fill:#D7DF23;}
</style>
<g>
	
		<text transform="matrix(1 0 0 1 354.2469 228.521)" class="st0" style="font-family:'OpenSans-CondensedBold'; font-size:67.5579px; letter-spacing:2;">TheCodeSkool</text>
	<g>
		<path class="st0" d="M797.7,278.4H294V132.4h503.6V278.4z M304,268.4h483.6V142.4H304V268.4z"/>
	</g>
	<rect x="329.6" y="228.8" class="st1" width="33.5" height="10.9"/>
</g>
<g>
	<g>
		<path class="st0" d="M74.2,74.3H2V2h72.2V74.3z M7.1,69.2h62.1V7.1H7.1V69.2z"/>
		<path class="st0" d="M76.2,76.2H0V0h76.2V76.2z M4,72.2h68.2V4H4V72.2z M71.2,71.2H5.1V5.1h66.1V71.2z M9.1,67.2h58.1V9.1H9.1
			V67.2z"/>
	</g>
</g>
<polygon class="st1" points="50,34.3 42,34.3 42,26.2 34.3,26.2 34.3,34.3 26.2,34.3 26.2,42 34.3,42 34.3,50 42,50 42,42 50,42 "/>
</svg>
